<?xml version="1.0" encoding="utf-8"?>
<!-- Generator: Adobe Illustrator 24.1.1, SVG Export Plug-In . SVG Version: 6.00 Build 0)  -->
<svg version="1.1" id="Camada_1" xmlns="http://www.w3.org/2000/svg" xmlns:xlink="http://www.w3.org/1999/xlink" x="0px" y="0px"
	 viewBox="0 0 124 153" style="enable-background:new 0 0 124 153;" xml:space="preserve">
<style type="text/css">
	.st0{fill:#93A496;}
	.st1{fill:#5F504D;}
	.st2{fill:#FFFFFF;}
</style>
<g>
	<rect x="0.2" y="-0.32" class="st0" width="123.93" height="153.19"/>
	<path class="st1" d="M51.25,98.61h-6.73l-3.21-7.96H24.13l-3.21,7.96h-6.73l18.53-45.85L51.25,98.61z M38.79,84.43l-6.07-15.01
		l-6.07,15.01H38.79z"/>
	<polygon class="st1" points="91.19,54.04 91.19,98.61 84.94,98.61 84.94,79.42 63.26,79.42 63.26,98.61 57.02,98.61 57.02,54.04 
		63.26,54.04 63.26,73.17 84.94,73.17 84.94,54.04 	"/>
	<path class="st1" d="M109.03,92.48c0.74,0.76,1.11,1.66,1.11,2.7c0,1.06-0.37,1.97-1.11,2.73c-0.76,0.74-1.66,1.11-2.7,1.11
		c-1.06,0-1.97-0.37-2.73-1.11c-0.74-0.76-1.11-1.67-1.11-2.73c0-1.04,0.37-1.94,1.11-2.7c0.76-0.74,1.67-1.11,2.73-1.11
		C107.36,91.37,108.27,91.74,109.03,92.48 M109.36,87.4h-6.1V54.04h6.1V87.4z"/>
	<polygon class="st1" points="37.43,136.94 17.32,115.56 17.32,136.33 14.24,136.33 14.24,107.77 34.34,129.16 34.34,108.31 
		37.43,108.31 	"/>
	<path class="st1" d="M63.73,136.33h-3.32l-2.09-5.18H46.48l-2.09,5.18h-3.32l11.33-28.04L63.73,136.33z M57.07,128.09l-4.67-11.57
		l-4.67,11.57H57.07z"/>
	<polygon class="st1" points="83.29,108.31 83.29,111.4 73.36,111.4 73.36,136.33 70.27,136.33 70.27,111.4 60.23,111.4 
		60.23,108.31 	"/>
	<path class="st1" d="M110.1,108.29v17.04c0,3.17-1.13,5.87-3.38,8.13c-2.24,2.24-4.94,3.36-8.11,3.36c-3.18,0-5.89-1.12-8.13-3.36
		c-2.24-2.25-3.36-4.96-3.36-8.13v-17.04h3.05v17.04c0,2.32,0.83,4.31,2.48,5.96c1.64,1.64,3.63,2.46,5.96,2.46
		c2.32,0,4.3-0.82,5.94-2.46c1.65-1.65,2.48-3.64,2.48-5.96v-17.04H110.1z"/>
	<path class="st2" d="M44.78,40.46c0.02-0.02,0.07-0.04,0.22-0.1c0.56-0.21,2.01-0.78,3.75-2.14l0.14-0.11l0.03-0.18
		c1.37-7.37,4.87-13.53,10.11-17.82c5.74-4.7,13.01-6.92,21.03-6.42l0.58,0.04l-0.11,0.57c-1.31,7.17-4.92,13.35-10.43,17.86
		c-5.75,4.7-12.99,7.11-20.38,6.76l-0.18-0.01l-0.14,0.11c-2.75,2.18-4.64,2.93-5.31,2.1l-0.05-0.07L44.78,40.46z M57,23.47
		c-3.15,3.42-5.44,7.76-6.64,12.53l-0.33,1.3l1.08-0.79c1-0.72,2.35-1.75,4.02-3.04l0.26-0.22c2.94-2.41,3.98-6.57,2.4-9.67
		l-0.32-0.62L57,23.47z M67.68,31.95c-2.42-2.09-6.07-2.16-8.68-0.18l-0.17,0.13c-2.73,2.13-4.92,3.82-6.51,5l-1.29,0.95l1.6-0.08
		c5.43-0.27,10.62-2.02,15.01-5.06l0.51-0.36L67.68,31.95z M64.61,17.71c-1.74,0.88-3.39,1.96-4.91,3.2
		c-0.43,0.35-0.86,0.73-1.29,1.13l-0.29,0.27l0.21,0.34c1.17,1.89,1.48,4.28,0.85,6.56l-0.4,1.43l1.16-0.92
		c1.67-1.32,3.51-2.78,5.49-4.36l0.04-0.04l0.04-0.04c2.32-2.94,0.57-6.16-0.29-7.41l-0.24-0.35L64.61,17.71z M75.03,24.52
		c-1.84-1.7-4.61-1.86-6.43-0.38c-1.87,1.5-3.67,2.94-5.37,4.29l-1.03,0.82l1.32,0.04c1.95,0.06,3.78,0.83,5.16,2.15l0.31,0.29
		l0.48-0.39c2.19-1.79,4.09-3.88,5.64-6.2l0.23-0.35L75.03,24.52z M72.08,15.19c-1.93,0.37-3.82,0.93-5.62,1.68l-0.53,0.22
		l0.31,0.48c0.73,1.16,1.57,2.95,1.42,4.96l-0.08,1.11l0.87-0.7c1.07-0.86,2.18-1.76,3.31-2.67l0.04-0.04l0.15-0.19
		c1.78-2.31,1.15-3.91,0.61-4.66l-0.18-0.25L72.08,15.19z M78.09,16.46c-2.03,1.65-4.02,3.27-5.95,4.84l-0.86,0.7l1.1,0.16
		c1.13,0.17,2.2,0.64,3.09,1.37l0.44,0.36l0.28-0.5c1.13-2,2.03-4.16,2.67-6.42l0.42-1.48L78.09,16.46z M77.29,14.66
		c-1.04,0.02-2.08,0.09-3.09,0.2l-0.65,0.07l0.26,0.6c0.24,0.56,0.36,1.15,0.34,1.77l-0.03,1.06l4.58-3.73L77.29,14.66z"/>
</g>
</svg>
